# AST/ASF file generated using VICON BodyLanguage
# -----------------------------------------------
:version 1.10
:name VICON
:units
  mass 1.0
  length 0.45
  angle deg
:documentation
   .ast/.asf automatically generated from VICON data using
   VICON BodyBuilder and BodyLanguage model FoxedUp or BRILLIANT.MOD
:root
   order TX TY TZ RX RY RZ
   axis XYZ
   position 0 0 0  
   orientation 0 0 0 
:bonedata
  begin
     id 1 
     name lhipjoint
     direction 0.627457 -0.725269 0.283342 
     length 2.53237 
     axis 0 0 0  XYZ
  end
  begin
     id 2 
     name lfemur
     direction 0.34202 -0.939693 0  
     length 7.32496  
     axis 0 0 20  XYZ
    dof rx ry rz
    limits (-160.0 20.0)
           (-70.0 70.0)
           (-60.0 70.0)
  end
  begin
     id 3 
     name ltibia
     direction 0.34202 -0.939693 0   
     length 7.69674   
     axis 0 0 20   XYZ
    dof rx
    limits (-10.0 170.0)
  end
  begin
     id 4 
     name lfoot
     direction 0.127289 -0.349722 0.928166   
     length 1.8612   
     axis -90 7.62852e-016 20   XYZ
    dof rx rz
    limits (-45.0 90.0)
           (-70.0 20.0)
  end
  begin
     id 5 
     name ltoes
     direction 1.53561e-011 -4.21864e-011 1   
     length 0.925608   
     axis -90 7.62852e-016 20   XYZ
    dof rx
    limits (-90.0 20.0)
  end
  begin
     id 6 
     name rhipjoint
     direction -0.609094 -0.738725 0.288599   
     length 2.48624  
     axis 0 0 0  XYZ 
  end
  begin
     id 7 
     name rfemur
     direction -0.34202 -0.939693 0   
     length 7.44259   
     axis 0 0 -20   XYZ
    dof rx ry rz
    limits (-160.0 20.0)
           (-70.0 70.0)
           (-70.0 60.0)
  end
  begin
     id 8 
     name rtibia
     direction -0.34202 -0.939693 0   
     length 7.7781   
     axis 0 0 -20   XYZ
    dof rx
    limits (-10.0 170.0)
 end
 begin
     id 9 
     name rfoot
     direction -0.107015 -0.294021 0.949789   
     length 2.14741  
     axis -90 -7.62852e-016 -20   XYZ
    dof rx rz
    limits (-45.0 90.0)
           (-20.0 70.0)
  end
  begin
     id 10 
     name rtoes
     direction -1.53497e-011 -4.21924e-011 1   
     length 1.0706   
     axis -90 -7.62852e-016 -20   XYZ
    dof rx
    limits (-90.0 20.0)
  end
  begin
     id 11 
     name lowerback
     direction -0.0142066 0.998112 -0.0597545   
     length 1.86627   
     axis 0 0 0   XYZ
    dof rx ry rz
    limits (-20.0 45.0)
           (-30.0 30.0)
           (-30.0 30.0)
  end
  begin
     id 12 
     name upperback
     direction 0.00547294 0.999744 0.0219437   
     length 1.86272   
     axis 0 0 0   XYZ
    dof rx ry rz
    limits (-20.0 45.0)
           (-30.0 30.0)
           (-30.0 30.0)
  end
  begin
     id 13 
     name thorax
     direction 0.0116162 0.998704 0.0495538   
     length 1.8703   
     axis 0 0 0   XYZ
    dof rx ry rz
    limits (-20.0 45.0)
           (-30.0 30.0)
           (-30.0 30.0)
  end
  begin
     id 14 
     name lowerneck
     direction -0.0106574 0.998739 0.0490586   
     length 1.8074   
     axis 0 0 0   XYZ
    dof rx ry rz
    limits (-20.0 45.0)
           (-30.0 30.0)
           (-30.0 30.0)
  end
  begin
     id 15 
     name upperneck
     direction 0.030527 0.976587 -0.212944   
     length 1.80681   
     axis 0 0 0   XYZ
    dof rx ry rz
    limits (-20.0 45.0)
           (-30.0 30.0)
           (-30.0 30.0)
  end
  begin
     id 16
     name head
     direction 0.00869225 0.997035 -0.0764531  
     length 1.8313  
     axis 0 0 0   XYZ
    dof rx ry rz
    limits (-20.0 45.0)
           (-30.0 30.0)
           (-30.0 30.0)
  end
  begin
     id 17 
     name lclavicle
     direction 0.915958 0.399447 0.0382386  
     length 3.78965  
     axis 0 0 0   XYZ
    dof ry rz
    limits (-20.0 10.0)
           (0.0 20.0)
  end
  begin
     id 18 
     name lhumerus
     direction 1 -4.48967e-011 3.19303e-027   
     length 4.78095   
     axis -180 -30 -90   XYZ
    dof rx ry rz
    limits (-60.0 90.0)
           (-90.0 90.0)
           (-90.0 90.0)
  end
  begin
     id 19
     name lradius
     direction 1 -4.48967e-011 -3.77974e-027   
     length 3.58615   
     axis -180 -30 -90   XYZ
    dof rx
    limits (-10.0 170.0)
  end
  begin
     id 20
     name lwrist
     direction 1 -4.48927e-011 1.2807e-027   
     length 1.79307   
     axis 1.91374e-015 90 90   XYZ
    dof ry
    limits (-180.0 0.0)
 end
  begin
     id 21 
     name lhand
     direction 1 -4.49036e-011 2.5614e-027   
     length 0.659812   
     axis -1.63439e-015 90 90   XYZ
    dof rx rz
    limits (-90.0 90.0)
           (-45.0 45.0)
  end
  begin
     id 22 
     name lfingers
     direction 1 -4.49052e-011 5.1228e-027   
     length 0.531957   
     axis -3.26879e-015 90 90   XYZ
    dof rx
    limits (0.0 90.0)
  end
  begin
     id 23
     name lthumb
     direction 0.707107 -6.35012e-011 0.707107   
     length 0.763787   
     axis -90 45 2.85299e-015   XYZ
    dof rx rz
    limits (-45.0 45.0)
           (-45.0 45.0)
  end
  begin
     id 24 
     name rclavicle
     direction -0.895351 0.435135 0.0948887   
     length 3.70497  
     axis 0 0 0   XYZ 
    dof ry rz
    limits (-10.0 20.0)
           (-20.0 0.0)
  end
  begin
     id 25 
     name rhumerus
     direction -1 -4.48971e-011 2.38946e-027  
     length 4.48913   
     axis -180 30 90   XYZ
    dof rx ry rz
    limits (-90.0 60.0)
           (-90.0 90.0)
           (-90.0 90.0)
  end
  begin
     id 26 
     name rradius
     direction -1 -4.4895e-011 4.38668e-027   
     length 3.7051   
     axis -180 30 90   XYZ
    dof rx
    limits (-10.0 170.0)
  end
  begin
     id 27 
     name rwrist
     direction -1 -4.49007e-011 1.2807e-027   
     length 1.85255   
     axis 1.91374e-015 -90 -90   XYZ
    dof ry
    limits (-180.0 0.0)
  end
  begin
     id 28
     name rhand
     direction -1 -4.48851e-011 2.5614e-027   
     length 0.449136   
     axis -1.63439e-015 -90 -90   XYZ
    dof rx rz
    limits (-90.0 90.0)
           (-45.0 45.0)
  end
  begin
     id 29
     name rfingers
     direction -1 -4.49128e-011 5.1228e-027   
     length 0.362105   
     axis -3.26879e-015 -90 -90   XYZ
    dof rx
    limits (0.0 90.0)
  end
  begin
     id 30
     name rthumb
     direction -0.707107 -6.34851e-011 0.707107   
     length 0.519912   
     axis -90 -45 -2.85299e-015   XYZ
    dof rx rz
    limits (-45.0 45.0)
           (-45.0 45.0)
  end
:hierarchy
  begin
    root lhipjoint rhipjoint lowerback
    lhipjoint lfemur
    lfemur ltibia
    ltibia lfoot
    lfoot ltoes
    rhipjoint rfemur
    rfemur rtibia
    rtibia rfoot
    rfoot rtoes
    lowerback upperback
    upperback thorax
    thorax lowerneck lclavicle rclavicle
    lowerneck upperneck
    upperneck head
    lclavicle lhumerus
    lhumerus lradius
    lradius lwrist
    lwrist lhand lthumb
    lhand lfingers
    rclavicle rhumerus
    rhumerus rradius
    rradius rwrist
    rwrist rhand rthumb
    rhand rfingers
  end

#!OML:ASF I:\Actors\actors\Patient Classification 2\Patient 1\Session 1\actor1.ASF
:FULLY-SPECIFIED
:DEGREES
179
root 0.745468 18.6103 2.64515 11.9048 28.6445 1.47975
lowerback 19.6713 1.48568 3.95675
upperback 3.72928 2.98666 2.12307
thorax -6.87147 1.40739 -0.714614
lowerneck -6.68447 -11.0365 -11.901
upperneck 24.3435 -15.4132 8.75069
head 10.5221 -7.24778 3.20373
rclavicle 1.59028e-014 -5.08889e-014
rhumerus -8.42686 7.90232 -64.614
rradius 59.1847
rwrist -40.4144
rhand -10.4835 -76.9196
rfingers 7.12502
rthumb 15.518 -253.683
lclavicle 1.59028e-014 -5.08889e-014
lhumerus -39.1742 -37.948 107.024
lradius 82.5323
lwrist 36.0476
lhand -11.44 -10.3292
lfingers 7.12502
lthumb 14.5966 19.1372
rfemur -4.59105 -12.0134 9.44597
rtibia 3.84498
rfoot -27.451 -23.0979
rtoes 8.46998
lfemur -27.5852 -3.9773 -22.438
ltibia 34.6306
lfoot -17.0875 -1.84767
ltoes -48.1661
180
root 0.793377 18.6067 2.6143 12.1888 29.0325 1.39948
lowerback 19.8667 1.63939 4.15211
upperback 3.83043 3.2384 2.15795
thorax -6.84784 1.52724 -0.854477
lowerneck -6.63428 -11.207 -12.1083
upperneck 23.9132 -15.6305 8.93025
head 10.4167 -7.35552 3.26677
rclavicle 8.26944e-014 1.27222e-014
rhumerus -6.97343 6.54717 -63.5391
rradius 58.2949
rwrist -39.705
rhand -7.62265 -77.6641
rfingers 7.12502
rthumb 18.2719 -253.174
lclavicle 8.26944e-014 1.27222e-014
lhumerus -38.9831 -38.0484 106.977
lradius 82.9331
lwrist 36.1707
lhand -11.1529 -10.2334
lfingers 7.12502
lthumb 14.8732 19.2127
rfemur -3.23068 -12.3749 9.37192
rtibia 0.58995
rfoot -26.4495 -24.3647
rtoes 8.82849
lfemur -28.119 -3.88921 -22.5755
ltibia 34.8397
lfoot -16.8879 -2.15487
ltoes -47.948
181
root 0.839529 18.6042 2.5874 12.5037 29.4075 1.34652
lowerback 20.0373 1.80121 4.33733
upperback 3.89959 3.49538 2.15615
thorax -6.84183 1.64856 -1.02955
lowerneck -6.59176 -11.3602 -12.2027
upperneck 23.5371 -15.8294 9.05223
head 10.3159 -7.44975 3.295
rclavicle -4.29375e-014 -1.11319e-014
rhumerus -5.70628 4.17539 -63.0053
rradius 57.4852
rwrist -37.861
rhand -6.00846 -79.1068
rfingers 7.12502
rthumb 19.8242 -251.884
lclavicle -4.29375e-014 -1.11319e-014
lhumerus -38.8877 -38.2307 106.94
lradius 83.3567
lwrist 36.246
lhand -10.9628 -10.129
lfingers 7.12502
lthumb 15.0563 19.3035
rfemur -3.21059 -12.7413 9.33922
rtibia 3.18055e-015
rfoot -26.3248 -24.586
rtoes 9.19639
lfemur -28.6429 -3.9217 -22.7007
ltibia 35.0294
lfoot -16.7261 -2.35447
ltoes -47.6373
182
root 0.881598 18.6027 2.56669 12.8681 29.9089 1.34638
lowerback 20.1555 1.89822 4.47499
upperback 3.94002 3.657 2.15811
thorax -6.84501 1.72447 -1.14907
lowerneck -6.61862 -11.4789 -12.2314
upperneck 23.2657 -15.9795 9.1251
head 10.2505 -7.51684 3.29984
rclavicle 8.34896e-014 2.38542e-014
rhumerus -4.232 4.60408 -61.2655
rradius 56.2826
rwrist -39.0845
rhand -6.46622 -78.8931
rfingers 7.12502
rthumb 19.3841 -252.053
lclavicle 8.34896e-014 2.38542e-014
lhumerus -38.9019 -38.3464 106.897
lradius 83.8388
lwrist 36.1629
lhand -10.8048 -10.0757
lfingers 7.12502
lthumb 15.2085 19.3454
rfemur -3.43975 -13.2441 9.31987
rtibia 1.51076e-014
rfoot -26.4701 -24.4878
rtoes 9.73041
lfemur -29.1786 -4.00993 -22.83
ltibia 35.212
lfoot -16.5194 -2.66771
ltoes -47.3457
183
root 0.921153 18.6013 2.54854 13.1885 30.3731 1.3022
lowerback 20.2511 1.97476 4.67042
upperback 3.99847 3.80019 2.1383
thorax -6.81103 1.79155 -1.31857
lowerneck -6.63142 -11.5885 -12.3156
upperneck 23.0189 -16.137 9.29944
head 10.2071 -7.58262 3.3478
rclavicle 5.96354e-014 3.18055e-015
rhumerus -3.01204 3.36978 -60.4143
rradius 55.3149
rwrist -38.697
rhand -7.00337 -78.4564
rfingers 7.12502
rthumb 18.8676 -252.439
lclavicle 5.96354e-014 3.18055e-015
lhumerus -38.8414 -38.2972 106.843
lradius 84.179
lwrist 35.9483
lhand -10.4588 -10.0872
lfingers 7.12502
lthumb 15.5418 19.3082
rfemur -3.64968 -13.6964 9.35256
rtibia -8.74653e-015
rfoot -26.6721 -24.3573
rtoes 10.2314
lfemur -29.6804 -3.98345 -22.9269
ltibia 35.3901
lfoot -16.3235 -3.08541
ltoes -47.2068
184
root 0.96588 18.5994 2.52518 13.3402 30.7958 1.10114
lowerback 20.409 2.02391 5.1584
upperback 4.07667 3.97175 2.10648
thorax -6.76432 1.86751 -1.67468
lowerneck -6.56183 -11.7181 -12.3454
upperneck 22.7312 -16.3185 9.41064
head 10.1261 -7.66492 3.36681
rclavicle 3.97569e-014 1.27222e-014
rhumerus -1.81281 0.180292 -60.6115
rradius 54.2341
rwrist -36.277
rhand -6.584 -78.3741
rfingers 7.12502
rthumb 19.2709 -252.561
lclavicle 3.97569e-014 1.27222e-014
lhumerus -38.7588 -38.2443 106.873
lradius 84.4063
lwrist 35.8076
lhand -10.3383 -10.2163
lfingers 7.12502
lthumb 15.6578 19.1701
rfemur -3.78806 -14.0627 9.48633
rtibia -2.46493e-014
rfoot -26.8691 -24.2682
rtoes 10.5106
lfemur -30.0713 -3.93943 -22.9112
ltibia 35.5546
lfoot -16.1921 -3.44931
ltoes -47.1155
185
root 1.01169 18.5961 2.50229 13.5 31.1916 0.944611
lowerback 20.644 2.05974 5.64054
upperback 4.07298 4.13457 2.06772
thorax -6.84471 1.93353 -2.03915
lowerneck -6.41451 -11.8471 -12.4718
upperneck 22.5168 -16.501 9.53668
head 10.0685 -7.7553 3.40948
rclavicle 7.95139e-016 -4.13472e-014
rhumerus -1.24598 1.26222 -58.7163
rradius 53.9479
rwrist -38.5516
rhand -6.57554 -78.3312
rfingers 7.12502
rthumb 19.279 -252.604
lclavicle 7.95139e-016 -4.13472e-014
lhumerus -38.9066 -38.2914 106.94
lradius 84.7748
lwrist 35.8652
lhand -10.6185 -10.3132
lfingers 7.12502
lthumb 15.388 19.0942
rfemur -3.91198 -14.4103 9.56349
rtibia -3.18055e-015
rfoot -27.0899 -24.1479
rtoes 11.0409
lfemur -30.4408 -3.9616 -22.9362
ltibia 35.7252
lfoot -16.0488 -3.7239
ltoes -46.9345
186
root 1.04734 18.5932 2.49215 13.8022 31.4653 1.00267
lowerback 20.8721 2.16384 5.66094
upperback 4.00189 4.29137 2.03403
thorax -7.02801 1.99989 -2.14035
lowerneck -6.26971 -11.9366 -12.6357
upperneck 22.4059 -16.6387 9.69035
head 10.0498 -7.82338 3.47392
rclavicle 1.12115e-013 -2.06736e-014
rhumerus -0.76252 1.26843 -57.5222
rradius 53.6173
rwrist -39.5306
rhand -6.28469 -78.401
rfingers 7.12502
rthumb 19.5587 -252.563
lclavicle 1.12115e-013 -2.06736e-014
lhumerus -39.19 -38.3727 106.953
lradius 85.2648
lwrist 36.1335
lhand -10.8277 -10.2992
lfingers 7.12502
lthumb 15.1864 19.1235
rfemur -4.08165 -14.6854 9.47977
rtibia -4.77083e-015
rfoot -27.3811 -23.9103
rtoes 12.2037
lfemur -30.8393 -4.0371 -23.1027
ltibia 35.9124
lfoot -15.9539 -3.84549
ltoes -46.822
187
root 1.08404 18.5907 2.4794 13.8375 31.7782 0.760114
lowerback 21.0304 2.22277 5.85457
upperback 4.06325 4.43058 2.15618
thorax -7.03021 2.0652 -2.15905
lowerneck -6.22096 -12.0105 -12.8103
upperneck 22.2197 -16.7357 9.83067
head 10.0169 -7.87352 3.53566
rclavicle -2.70347e-014 -3.33958e-014
rhumerus -0.112961 0.797514 -56.5704
rradius 53.2104
rwrist -39.7436
rhand -6.09828 -78.3551
rfingers 7.12502
rthumb 19.7379 -252.627
lclavicle -2.70347e-014 -3.33958e-014
lhumerus -39.1884 -38.3363 106.979
lradius 85.633
lwrist 36.401
lhand -10.9207 -10.2318
lfingers 7.12502
lthumb 15.0969 19.1976
rfemur -4.14185 -14.9137 9.66386
rtibia -1.11319e-014
rfoot -27.5642 -23.7544
rtoes 12.8788
lfemur -31.1321 -4.18122 -22.9628
ltibia 36.1126
lfoot -15.9286 -3.91183
ltoes -46.6709
188
root 1.12928 18.589 2.45984 13.5642 32.1579 0.17007
lowerback 21.0951 2.19089 6.46929
upperback 4.25581 4.53646 2.34306
thorax -6.81288 2.11889 -2.32543
lowerneck -6.25811 -12.0917 -12.9398
upperneck 22.0162 -16.8316 9.93541
head 9.98639 -7.92038 3.57321
rclavicle -7.87187e-014 -1.27222e-014
rhumerus 0.638747 0.437752 -55.6442
rradius 52.7487
rwrist -39.8152
rhand -5.97251 -78.3436
rfingers 7.12502
rthumb 19.8588 -252.651
lclavicle -7.87187e-014 -1.27222e-014
lhumerus -38.9463 -38.2402 106.938
lradius 85.894
lwrist 36.5008
lhand -10.9798 -10.0258
lfingers 7.12502
lthumb 15.0399 19.408
rfemur -4.02255 -15.1151 10.1112
rtibia -1.59028e-015
rfoot -27.864 -23.4584
rtoes 13.8423
lfemur -31.2831 -4.31324 -22.534
ltibia 36.3266
lfoot -15.951 -4.02153
ltoes -46.4986
189
root 1.17148 18.5863 2.44723 13.4757 32.4272 -0.161545
lowerback 21.1369 2.18099 6.85441
upperback 4.36319 4.60859 2.37406
thorax -6.68263 2.15498 -2.52377
lowerneck -6.25584 -12.1649 -12.851
upperneck 21.8948 -16.929 9.91875
head 9.94501 -7.96201 3.53938
rclavicle 9.22361e-014 4.77083e-015
rhumerus 1.15825 0.0960902 -55.0377
rradius 52.3344
rwrist -39.9073
rhand -6.30657 -78.1259
rfingers 7.12502
rthumb 19.5376 -252.836
lclavicle 9.22361e-014 4.77083e-015
lhumerus -38.8522 -38.1697 106.82
lradius 86.1259
lwrist 36.4704
lhand -10.9709 -9.89632
lfingers 7.12502
lthumb 15.0486 19.5368
rfemur -3.95904 -15.2728 10.3209
rtibia 1.90833e-014
rfoot -28.2288 -23.1004
rtoes 15.2196
lfemur -31.4358 -4.42012 -22.3479
ltibia 36.483
lfoot -15.9807 -4.03262
ltoes -46.5394
190
root 1.20859 18.5799 2.44078 13.5939 32.5371 -0.237065
lowerback 21.1615 2.23743 6.88925
upperback 4.37901 4.68647 2.32801
thorax -6.66441 2.19252 -2.61297
lowerneck -6.16812 -12.2197 -12.7231
upperneck 21.7941 -17.0209 9.91997
head 9.89207 -7.99942 3.51252
rclavicle -1.19271e-014 -4.6118e-014
rhumerus 1.35616 -0.166243 -54.6
rradius 52.1202
rwrist -40.156
rhand -6.28197 -78.0992
rfingers 7.12502
rthumb 19.5613 -252.865
lclavicle -1.19271e-014 -4.6118e-014
lhumerus -38.8795 -38.0459 106.786
lradius 86.2414
lwrist 36.3389
lhand -10.9522 -9.97279
lfingers 7.12502
lthumb 15.0666 19.4589
rfemur -4.08777 -15.3405 10.3203
rtibia 1.43125e-014
rfoot -28.19 -23.2814
rtoes 14.9186
lfemur -31.6299 -4.4792 -22.3906
ltibia 36.5914
lfoot -15.9915 -4.02031
ltoes -46.5778
191
root 1.23081 18.5742 2.45567 14.2635 32.3404 0.403906
lowerback 20.894 2.50529 5.81659
upperback 4.38645 4.77031 2.22818
thorax -6.58998 2.25341 -2.12618
lowerneck -6.0994 -12.2406 -12.7484
upperneck 21.7227 -17.0702 10.0265
head 9.87303 -8.01847 3.54945
rclavicle -4.13472e-014 -4.92986e-014
rhumerus 1.39973 -0.263707 -54.2186
rradius 52.079
rwrist -40.3842
rhand -5.81762 -78.3339
rfingers 7.12502
rthumb 20.0077 -252.676
lclavicle -4.13472e-014 -4.92986e-014
lhumerus -38.8451 -37.8258 106.796
lradius 86.2799
lwrist 36.1828
lhand -10.9323 -10.0535
lfingers 7.12502
lthumb 15.0857 19.3768
rfemur -4.42876 -15.2889 9.70814
rtibia 6.36111e-015
rfoot -28.1669 -23.4675
rtoes 14.5196
lfemur -31.9192 -4.42379 -23.065
ltibia 36.6104
lfoot -15.9953 -4.05417
ltoes -46.4422
192
root 1.2614 18.5702 2.45958 14.538 32.2201 0.621067
lowerback 20.8145 2.62367 5.30914
upperback 4.40858 4.80412 2.17974
thorax -6.56021 2.27922 -1.8975
lowerneck -6.06543 -12.2548 -12.8396
upperneck 21.7036 -17.1028 10.1313
head 9.88347 -8.03286 3.59556
rclavicle -4.53229e-014 2.22639e-014
rhumerus 1.33014 -0.280369 -54.0396
rradius 52.1642
rwrist -40.4546
rhand -5.99186 -78.2303
rfingers 7.12502
rthumb 19.8402 -252.762
lclavicle -4.53229e-014 2.22639e-014
lhumerus -38.8267 -37.5931 106.772
lradius 86.3421
lwrist 36.0185
lhand -10.9368 -10.0679
lfingers 7.12502
lthumb 15.0813 19.3627
rfemur -4.55175 -15.1982 9.42011
rtibia 1.19271e-014
rfoot -28.209 -23.5305
rtoes 14.5343
lfemur -32.0272 -4.37428 -23.3757
ltibia 36.6216
lfoot -16.0245 -4.04545
ltoes -46.2704
